
          <svg data-logo="logo" xmlns="http://www.w3.org/2000/svg" viewBox="0 0 197 43">
            <g id="logogram" transform="translate(0, 1) rotate(0)"><path d="M0.760437 30.7827L0.76044 10.7827L10.7604 16.3383V25.2827L18.7605 29.7827L26.7605 25.2827V16.3383L36.7605 10.7827V30.7827L18.7605 40.7827L0.760437 30.7827Z" fill="#192657"/><path fill-rule="evenodd" clip-rule="evenodd" d="M5.76045 13.5605L0.760437 10.7827L18.7605 0.782715L36.7605 10.7827L31.7605 13.5605V28.2827L18.7605 35.7828L5.76044 28.2827L5.76045 13.5605ZM31.2189 13.8615L26.7605 16.3383V16.2827L18.7605 11.7827L10.7604 16.2827V16.3383L6.30211 13.8615V27.9751L18.7605 35.1626L31.2189 27.9751V13.8615Z" fill="url(#paint0_linear_5558_2243)"/></g>
            <g id="logotype" transform="translate(43, 8)"><path fill="#111111" d="M8.31 1.54L13.52 1.54L13.52 27L8.31 27L8.31 1.54ZM20.87 15.94L20.87 15.94L20.87 27L15.74 27L15.74 7.89L20.58 7.89L20.66 12.66L20.35 12.66Q21.11 10.27 22.63 8.96Q24.16 7.65 26.59 7.65L26.59 7.65Q28.57 7.65 30.04 8.52Q31.51 9.38 32.33 11.00Q33.15 12.61 33.15 14.85L33.15 14.85L33.15 27L28.03 27L28.03 15.74Q28.03 13.96 27.11 12.95Q26.20 11.94 24.57 11.94L24.57 11.94Q23.50 11.94 22.65 12.41Q21.81 12.88 21.34 13.77Q20.87 14.66 20.87 15.94ZM33.41 7.89L44.74 7.89L44.74 11.81L33.41 11.81L33.41 7.89ZM36.04 21.86L36.04 3.35L41.17 3.35L41.17 21.41Q41.17 22.32 41.57 22.75Q41.97 23.19 42.91 23.19L42.91 23.19Q43.20 23.19 43.73 23.11Q44.26 23.04 44.53 22.97L44.53 22.97L45.27 26.81Q44.41 27.07 43.57 27.17Q42.72 27.27 41.95 27.27L41.95 27.27Q39.08 27.27 37.56 25.87Q36.04 24.47 36.04 21.86L36.04 21.86ZM54.43 27.38L54.43 27.38Q51.50 27.38 49.38 26.18Q47.27 24.98 46.13 22.78Q44.99 20.57 44.99 17.55L44.99 17.55Q44.99 14.59 46.12 12.37Q47.25 10.15 49.32 8.90Q51.38 7.65 54.17 7.65L54.17 7.65Q56.05 7.65 57.67 8.25Q59.30 8.85 60.53 10.06Q61.76 11.26 62.45 13.07Q63.14 14.88 63.14 17.34L63.14 17.34L63.14 18.78L47.09 18.78L47.09 15.57L60.63 15.57L58.24 16.42Q58.24 14.93 57.78 13.83Q57.33 12.73 56.43 12.12Q55.54 11.52 54.20 11.52L54.20 11.52Q52.89 11.52 51.96 12.13Q51.03 12.75 50.55 13.80Q50.07 14.85 50.07 16.20L50.07 16.20L50.07 18.47Q50.07 20.13 50.62 21.26Q51.18 22.39 52.18 22.95Q53.18 23.51 54.51 23.51L54.51 23.51Q55.42 23.51 56.15 23.26Q56.89 23.00 57.41 22.50Q57.93 21.99 58.20 21.26L58.20 21.26L62.85 22.13Q62.39 23.70 61.25 24.89Q60.10 26.08 58.38 26.73Q56.67 27.38 54.43 27.38ZM64.37 1.54L69.50 1.54L69.50 27L64.37 27L64.37 1.54ZM71.58 1.54L76.71 1.54L76.71 27L71.58 27L71.58 1.54ZM83.92 27L78.79 27L78.79 7.89L83.92 7.89L83.92 27ZM81.35 5.40L81.35 5.40Q80.19 5.40 79.37 4.63Q78.55 3.86 78.55 2.77L78.55 2.77Q78.55 1.67 79.37 0.90Q80.19 0.13 81.35 0.13L81.35 0.13Q82.52 0.13 83.34 0.90Q84.17 1.66 84.17 2.77L84.17 2.77Q84.17 3.86 83.34 4.63Q82.52 5.40 81.35 5.40ZM103.41 27.34L103.41 27.34Q99.84 27.34 97.15 25.76Q94.46 24.18 92.95 21.25Q91.43 18.32 91.43 14.30L91.43 14.30Q91.43 10.17 93.01 7.24Q94.58 4.30 97.26 2.75Q99.94 1.19 103.29 1.19L103.29 1.19Q105.45 1.19 107.30 1.82Q109.15 2.44 110.60 3.59Q112.04 4.73 112.96 6.30Q113.87 7.86 114.15 9.74L114.15 9.74L108.85 9.74Q108.57 8.83 108.09 8.11Q107.60 7.38 106.91 6.87Q106.22 6.36 105.33 6.09Q104.44 5.83 103.38 5.83L103.38 5.83Q101.41 5.83 99.91 6.81Q98.41 7.79 97.57 9.67Q96.73 11.55 96.73 14.25L96.73 14.25Q96.73 16.95 97.56 18.84Q98.39 20.73 99.89 21.72Q101.40 22.71 103.45 22.71L103.45 22.71Q105.29 22.71 106.61 22.04Q107.92 21.38 108.63 20.15Q109.34 18.92 109.34 17.24L109.34 17.24L110.44 17.40L103.81 17.40L103.81 13.43L114.40 13.43L114.40 16.61Q114.40 19.96 112.98 22.36Q111.56 24.76 109.09 26.05Q106.61 27.34 103.41 27.34ZM121.13 27L116.01 27L116.01 7.89L120.96 7.89L120.96 11.23L121.17 11.23Q121.70 9.45 122.94 8.54Q124.17 7.64 125.78 7.64L125.78 7.64Q126.17 7.64 126.63 7.68Q127.08 7.72 127.44 7.81L127.44 7.81L127.44 12.39Q127.10 12.27 126.45 12.20Q125.80 12.13 125.22 12.13L125.22 12.13Q124.06 12.13 123.12 12.64Q122.18 13.14 121.65 14.04Q121.13 14.93 121.13 16.13L121.13 16.13L121.13 27ZM133.11 27L127.98 27L127.98 7.89L133.11 7.89L133.11 27ZM130.55 5.40L130.55 5.40Q129.39 5.40 128.56 4.63Q127.74 3.86 127.74 2.77L127.74 2.77Q127.74 1.67 128.56 0.90Q129.39 0.13 130.55 0.13L130.55 0.13Q131.71 0.13 132.54 0.90Q133.37 1.66 133.37 2.77L133.37 2.77Q133.37 3.86 132.54 4.63Q131.71 5.40 130.55 5.40ZM142.18 27.32L142.18 27.32Q139.98 27.32 138.21 26.19Q136.44 25.05 135.42 22.86Q134.39 20.66 134.39 17.48L134.39 17.48Q134.39 14.22 135.45 12.03Q136.51 9.84 138.27 8.75Q140.03 7.65 142.15 7.65L142.15 7.65Q143.77 7.65 144.85 8.20Q145.93 8.75 146.59 9.55Q147.26 10.35 147.58 11.11L147.58 11.11L147.75 11.11L147.75 1.54L152.88 1.54L152.88 27L147.84 27L147.84 23.94L147.58 23.94Q147.24 24.71 146.57 25.49Q145.89 26.27 144.82 26.79Q143.74 27.32 142.18 27.32ZM143.76 23.21L143.76 23.21Q145.05 23.21 145.98 22.49Q146.90 21.77 147.38 20.48Q147.86 19.19 147.86 17.46L147.86 17.46Q147.86 15.72 147.39 14.45Q146.92 13.17 145.99 12.47Q145.07 11.76 143.76 11.76L143.76 11.76Q142.41 11.76 141.49 12.49Q140.58 13.23 140.12 14.51Q139.65 15.79 139.65 17.46L139.65 17.46Q139.65 19.14 140.12 20.44Q140.59 21.74 141.51 22.47Q142.42 23.21 143.76 23.21Z"/></g>
            <defs xmlns="http://www.w3.org/2000/svg">
<linearGradient id="paint0_linear_5558_2243" x1="5.76044" y1="8.56049" x2="32.7605" y2="8.5605" gradientUnits="userSpaceOnUse">
<stop stop-color="#64C2DB"/>
<stop offset="0.307292" stop-color="#7476ED"/>
<stop offset="0.604167" stop-color="#C994DF"/>
<stop offset="1" stop-color="#E56F8C"/>
</linearGradient>
</defs>
          </svg>